<svg width="270" height="56" viewBox="0 0 270 56" fill="none" xmlns="http://www.w3.org/2000/svg">
<g clip-path="url(#clip0_235:181)">
<path d="M69.1601 36.9601C70.1015 36.9601 71.0218 36.6809 71.8046 36.1579C72.5874 35.6348 73.1975 34.8914 73.5577 34.0216C73.918 33.1519 74.0123 32.1948 73.8286 31.2714C73.645 30.3481 73.1916 29.4999 72.5259 28.8342C71.8602 28.1685 71.0121 27.7152 70.0887 27.5315C69.1654 27.3479 68.2083 27.4421 67.3385 27.8024C66.4687 28.1627 65.7253 28.7728 65.2023 29.5555C64.6793 30.3383 64.4001 31.2586 64.4001 32.2001C64.3945 32.8267 64.5138 33.4482 64.751 34.0282C64.9882 34.6083 65.3386 35.1353 65.7818 35.5784C66.2249 36.0215 66.7519 36.3719 67.3319 36.6091C67.9119 36.8464 68.5334 36.9657 69.1601 36.9601Z" fill="#EC1D24"/>
<path d="M45.78 18.62L52.08 9.38V0H32.06L25.76 9.38H40.74L33.04 20.86L37.66 28.98C39.0541 28.1413 40.6532 27.7052 42.28 27.72C44.1686 27.6922 46.0228 28.2269 47.6067 29.2559C49.1905 30.285 50.4325 31.7619 51.1746 33.4988C51.9166 35.2357 52.1252 37.1541 51.7739 39.01C51.4225 40.8658 50.527 42.5751 49.2014 43.9206C47.8757 45.266 46.1798 46.1867 44.3294 46.5655C42.479 46.9444 40.5577 46.7642 38.81 46.0479C37.0623 45.3317 35.5671 44.1117 34.5147 42.5433C33.4623 40.9748 32.9003 39.1288 32.9 37.24H23.8C23.8 42.1412 25.747 46.8417 29.2127 50.3073C32.6784 53.773 37.3788 55.72 42.28 55.72C47.1812 55.72 51.8817 53.773 55.3474 50.3073C58.813 46.8417 60.76 42.1412 60.76 37.24C60.8223 32.8776 59.3598 28.6302 56.625 25.2309C53.8902 21.8316 50.0546 19.4934 45.78 18.62Z" fill="white"/>
<path d="M18.9 0C15.5644 0.0198013 12.2886 0.886939 9.38 2.52V0H0V36.96H9.38V18.76C9.38361 17.5174 9.63334 16.2878 10.1148 15.1423C10.5962 13.9967 11.2998 12.9579 12.185 12.0858C13.0701 11.2137 14.1192 10.5255 15.2718 10.0611C16.4243 9.59669 17.6575 9.3652 18.9 9.38H21.98L28.56 0H18.9Z" fill="white"/>
<path d="M126.98 27.86C127.012 29.6662 126.578 31.4502 125.72 33.04C124.915 34.568 123.638 35.7956 122.08 36.54C120.396 37.4158 118.517 37.8494 116.62 37.8H109.2V18.06H116.62C118.517 18.0105 120.396 18.4441 122.08 19.32C123.6 20.0696 124.83 21.2999 125.58 22.82C126.563 24.3118 127.053 26.0748 126.98 27.86ZM116.2 33.46C117.793 33.5375 119.352 32.9842 120.54 31.92C121.066 31.3595 121.474 30.6987 121.738 29.977C122.003 29.2553 122.119 28.4876 122.08 27.72C122.119 26.9523 122.003 26.1846 121.738 25.4629C121.474 24.7412 121.066 24.0804 120.54 23.52C119.352 22.4557 117.793 21.9024 116.2 21.98H113.96V33.32H116.2V33.46ZM144.48 29.54C144.503 29.9648 144.455 30.3905 144.34 30.8H133.56C133.56 31.7087 133.855 32.593 134.4 33.32C134.684 33.5732 135.017 33.7659 135.378 33.8863C135.739 34.0066 136.121 34.0521 136.5 34.02C137.153 34.0516 137.797 33.8535 138.32 33.46C138.767 33.0905 139.106 32.6067 139.3 32.06H144.34C144.165 33.1541 143.679 34.1748 142.94 35C142.212 35.8808 141.306 36.5966 140.28 37.1C139.166 37.5456 137.98 37.7828 136.78 37.8C135.399 37.8627 134.028 37.543 132.818 36.876C131.607 36.209 130.604 35.2206 129.92 34.02C129.233 32.7291 128.896 31.2814 128.94 29.82C128.865 28.3556 129.204 26.8997 129.92 25.62C130.552 24.4276 131.528 23.4523 132.72 22.82C133.961 22.1361 135.363 21.7977 136.78 21.84C138.198 21.7812 139.605 22.1206 140.84 22.82C141.953 23.4473 142.873 24.3672 143.5 25.48C144.168 26.7274 144.505 28.1252 144.48 29.54ZM139.72 28.84C139.754 28.4277 139.696 28.013 139.551 27.6257C139.406 27.2384 139.177 26.8881 138.88 26.6C138.608 26.3216 138.28 26.1031 137.919 25.9585C137.557 25.8138 137.169 25.7462 136.78 25.76C135.957 25.7621 135.162 26.0602 134.54 26.6C133.969 27.2138 133.623 28.0037 133.56 28.84H139.72ZM154.28 33.18L157.64 22.26H162.68L157.08 37.94H151.2L145.6 22.26H150.64L154.28 33.18ZM179.48 29.54C179.503 29.9648 179.455 30.3905 179.34 30.8H168.56C168.56 31.7087 168.855 32.593 169.4 33.32C169.684 33.5732 170.017 33.7659 170.378 33.8863C170.739 34.0066 171.121 34.0521 171.5 34.02C172.153 34.0516 172.797 33.8535 173.32 33.46C173.767 33.0905 174.106 32.6067 174.3 32.06H179.34C179.165 33.1541 178.679 34.1748 177.94 35C177.212 35.8808 176.306 36.5966 175.28 37.1C174.166 37.5456 172.98 37.7828 171.78 37.8C170.399 37.8627 169.028 37.543 167.818 36.876C166.607 36.209 165.604 35.2206 164.92 34.02C164.233 32.7291 163.896 31.2814 163.94 29.82C163.865 28.3556 164.204 26.8997 164.92 25.62C165.552 24.4276 166.528 23.4523 167.72 22.82C168.961 22.1361 170.363 21.7977 171.78 21.84C173.198 21.7812 174.605 22.1206 175.84 22.82C176.953 23.4473 177.873 24.3672 178.5 25.48C179.168 26.7274 179.505 28.1252 179.48 29.54ZM174.72 28.84C174.754 28.4277 174.696 28.013 174.551 27.6257C174.406 27.2384 174.177 26.8881 173.88 26.6C173.608 26.3216 173.28 26.1031 172.919 25.9585C172.557 25.8138 172.169 25.7462 171.78 25.76C170.957 25.7621 170.162 26.0602 169.54 26.6C168.969 27.2138 168.623 28.0037 168.56 28.84H174.72ZM186.76 17.08V37.8H182V17.08H186.76ZM197.4 21.98C198.861 21.9355 200.309 22.2733 201.6 22.96C202.832 23.5865 203.854 24.5598 204.54 25.76C205.269 27.0402 205.654 28.4869 205.66 29.96C205.673 31.4355 205.286 32.8869 204.54 34.16C203.854 35.3601 202.832 36.3335 201.6 36.96C200.294 37.6045 198.857 37.9397 197.4 37.9397C195.943 37.9397 194.506 37.6045 193.2 36.96C191.968 36.3335 190.946 35.3601 190.26 34.16C189.573 32.8691 189.236 31.4214 189.28 29.96C189.221 28.4971 189.56 27.0458 190.26 25.76C190.946 24.5598 191.968 23.5865 193.2 22.96C194.491 22.2733 195.939 21.9355 197.4 21.98ZM197.4 26.18C196.956 26.161 196.513 26.2389 196.102 26.4081C195.691 26.5773 195.322 26.8339 195.02 27.16C194.364 27.943 194.015 28.9385 194.04 29.96C193.982 30.4703 194.04 30.9871 194.21 31.4719C194.38 31.9567 194.657 32.3969 195.02 32.76C195.322 33.086 195.691 33.3426 196.102 33.5118C196.513 33.681 196.956 33.7589 197.4 33.74C197.825 33.7724 198.252 33.7001 198.642 33.5292C199.033 33.3583 199.375 33.0942 199.64 32.76C200.296 31.9769 200.645 30.9814 200.62 29.96C200.678 29.4496 200.619 28.9328 200.45 28.448C200.28 27.9632 200.003 27.523 199.64 27.16C199.375 26.8257 199.033 26.5616 198.642 26.3907C198.252 26.2198 197.825 26.1475 197.4 26.18ZM217.7 21.98C218.937 21.9565 220.155 22.2973 221.2 22.96C222.238 23.654 223.062 24.6236 223.58 25.76C224.153 27.085 224.439 28.5164 224.42 29.96C224.469 31.4061 224.181 32.8438 223.58 34.16C223.062 35.2963 222.238 36.2659 221.2 36.96C220.171 37.6581 218.942 38.0021 217.7 37.94C216.611 37.9819 215.536 37.6887 214.62 37.1C213.762 36.5984 213.115 35.8024 212.8 34.86V45.08H208.04V22.12H212.8V24.92C213.163 24.0048 213.799 23.223 214.62 22.68C215.581 22.2192 216.634 21.98 217.7 21.98ZM216.16 26.18C215.695 26.1607 215.231 26.2378 214.797 26.4065C214.364 26.5751 213.97 26.8317 213.64 27.16C213.288 27.5307 213.018 27.972 212.849 28.4547C212.68 28.9374 212.616 29.4505 212.66 29.96C212.628 30.4685 212.698 30.9784 212.866 31.4593C213.034 31.9403 213.298 32.3826 213.64 32.76C214.327 33.3916 215.227 33.7421 216.16 33.7421C217.093 33.7421 217.993 33.3916 218.68 32.76C219.032 32.3892 219.302 31.9479 219.471 31.4652C219.64 30.9825 219.704 30.4694 219.66 29.96C219.704 29.4505 219.64 28.9374 219.471 28.4547C219.302 27.972 219.032 27.5307 218.68 27.16C218.366 26.8105 217.975 26.5397 217.537 26.3695C217.099 26.1993 216.627 26.1343 216.16 26.18ZM241.78 29.54C241.803 29.9648 241.755 30.3905 241.64 30.8H230.86C230.86 31.7087 231.155 32.593 231.7 33.32C231.984 33.5732 232.317 33.7659 232.678 33.8863C233.039 34.0066 233.421 34.0521 233.8 34.02C234.453 34.0516 235.097 33.8535 235.62 33.46C236.067 33.0905 236.406 32.6067 236.6 32.06H241.64C241.465 33.1541 240.979 34.1748 240.24 35C239.512 35.8808 238.606 36.5966 237.58 37.1C236.466 37.5456 235.28 37.7828 234.08 37.8C232.699 37.8627 231.328 37.543 230.118 36.876C228.907 36.209 227.904 35.2206 227.22 34.02C226.533 32.7291 226.196 31.2814 226.24 29.82C226.165 28.3556 226.504 26.8997 227.22 25.62C227.852 24.4276 228.828 23.4523 230.02 22.82C231.261 22.1361 232.663 21.7977 234.08 21.84C235.498 21.7812 236.905 22.1206 238.14 22.82C239.253 23.4473 240.173 24.3672 240.8 25.48C241.468 26.7274 241.805 28.1252 241.78 29.54ZM237.02 28.84C237.054 28.4277 236.996 28.013 236.851 27.6257C236.706 27.2384 236.477 26.8881 236.18 26.6C235.908 26.3216 235.58 26.1031 235.219 25.9585C234.857 25.8138 234.469 25.7462 234.08 25.76C233.257 25.7621 232.462 26.0602 231.84 26.6C231.269 27.2138 230.923 28.0037 230.86 28.84H237.02ZM249.06 25.06C249.621 24.1484 250.388 23.3812 251.3 22.82C252.232 22.2666 253.296 21.9763 254.38 21.98V27.16H252.98C251.933 27.0959 250.895 27.3923 250.04 28C249.666 28.3553 249.382 28.7946 249.212 29.2815C249.041 29.7685 248.989 30.289 249.06 30.8V37.8H244.3V22.12H249.06V25.06ZM262.22 21.98C263.937 21.9303 265.618 22.4742 266.98 23.52C267.593 23.9941 268.106 24.5843 268.49 25.257C268.875 25.9296 269.123 26.6714 269.22 27.44H264.6C264.492 26.8499 264.198 26.3101 263.76 25.9C263.533 25.6966 263.267 25.542 262.978 25.4457C262.689 25.3494 262.383 25.3134 262.08 25.34C261.853 25.3223 261.624 25.3503 261.407 25.4225C261.191 25.4946 260.991 25.6094 260.82 25.76C260.683 25.8833 260.575 26.0347 260.503 26.2039C260.43 26.3731 260.395 26.556 260.4 26.74C260.415 26.9698 260.487 27.1923 260.61 27.3877C260.732 27.5831 260.9 27.7453 261.1 27.86C261.875 28.1507 262.671 28.3846 263.48 28.56C264.48 28.7643 265.463 29.0451 266.42 29.4C267.185 29.6863 267.861 30.1692 268.38 30.8C268.968 31.5584 269.265 32.5016 269.22 33.46C269.203 34.3015 268.961 35.1233 268.52 35.84C268.016 36.6088 267.281 37.1973 266.42 37.52C265.398 37.9324 264.301 38.1233 263.2 38.08C261.41 38.1928 259.635 37.6996 258.16 36.68C257.512 36.1966 256.968 35.5883 256.559 34.8909C256.15 34.1936 255.885 33.4214 255.78 32.62H260.4C260.508 33.21 260.802 33.7498 261.24 34.16C261.807 34.5722 262.501 34.7705 263.2 34.72C263.427 34.7376 263.656 34.7096 263.872 34.6374C264.089 34.5653 264.289 34.4506 264.46 34.3C264.597 34.1766 264.705 34.0252 264.777 33.856C264.85 33.6868 264.885 33.5039 264.88 33.32C264.899 33.0632 264.825 32.8083 264.67 32.6023C264.516 32.3964 264.292 32.2534 264.04 32.2C263.245 31.8282 262.393 31.5916 261.52 31.5C260.57 31.2786 259.635 30.9981 258.72 30.66C257.955 30.3736 257.279 29.8907 256.76 29.26C256.194 28.5439 255.897 27.6523 255.92 26.74C255.903 26.0995 256.034 25.4638 256.3 24.8814C256.567 24.2991 256.964 23.7855 257.46 23.38C258.838 22.3799 260.52 21.8854 262.22 21.98Z" fill="white"/>
</g>
<defs>
<clipPath id="clip0_235:181">
<rect width="269.22" height="56" fill="white"/>
</clipPath>
</defs>
</svg>
