<svg width="56" height="56" viewBox="0 0 56 56" stroke="currentColor" fill="none" xmlns="http://www.w3.org/2000/svg">
<path d="M20.125 25.4713C18.9218 26.16 17.9518 27.1925 17.3396 28.4363C16.7273 29.6801 16.5006 31.0786 16.6887 32.4521C16.8768 33.8257 17.471 35.1117 18.3951 36.1452C19.3191 37.1787 20.531 37.9124 21.875 38.2524"  stroke-width="2" stroke-miterlimit="10" stroke-linecap="square"/>
<path d="M7.51367 27.4173C8.65868 28.7017 10.0624 29.7295 11.6327 30.4331C13.203 31.1368 14.9043 31.5003 16.625 31.5"  stroke-width="2" stroke-miterlimit="10" stroke-linecap="square"/>
<path d="M30.625 8.75C30.6291 7.0459 30.0103 5.39904 28.8849 4.11941C27.7595 2.83977 26.2052 2.01561 24.5145 1.80204C22.8239 1.58848 21.1134 2.00024 19.7052 2.95983C18.2969 3.91942 17.288 5.36065 16.8682 7.01225C16.7869 7.0105 16.7072 7 16.625 7C14.2589 6.99717 11.9428 7.68044 9.95718 8.96704C7.97153 10.2536 6.40152 12.0884 5.43731 14.249C4.47309 16.4097 4.15604 18.8036 4.52456 21.1408C4.89307 23.4779 5.93134 25.6581 7.51361 27.4172C6.62507 28.0011 5.88205 28.7808 5.34154 29.6964C4.80104 30.6119 4.4774 31.6392 4.39546 32.6992C4.31352 33.7593 4.47545 34.824 4.86884 35.8118C5.26222 36.7996 5.8766 37.6841 6.66486 38.3976C6.14749 40.0821 5.99964 41.8584 6.23139 43.6053C6.46315 45.3522 7.06906 47.0285 8.00776 48.5198C8.94647 50.0111 10.1959 51.2824 11.6707 52.2468C13.1456 53.2112 14.8111 53.8461 16.5537 54.1081C18.2963 54.3701 20.0749 54.253 21.7681 53.7649C23.4613 53.2768 25.0293 52.4292 26.365 51.2798C27.7008 50.1304 28.7728 48.7064 29.508 47.1049C30.2431 45.5034 30.6242 43.7622 30.625 42H37.625L42.1505 46.5255"  stroke-width="2" stroke-miterlimit="10" stroke-linecap="square"/>
<path d="M41.125 34.125H30.625V28"  stroke-width="2" stroke-miterlimit="10" stroke-linecap="square"/>
<path d="M46.375 21.875H30.625V14.875H37.625L42.1505 10.3495"  stroke-width="2" stroke-miterlimit="10" stroke-linecap="square"/>
<path d="M44.625 11.375C46.558 11.375 48.125 9.808 48.125 7.875C48.125 5.942 46.558 4.375 44.625 4.375C42.692 4.375 41.125 5.942 41.125 7.875C41.125 9.808 42.692 11.375 44.625 11.375Z" stroke="#EC1D24" stroke-width="2" stroke-miterlimit="10" stroke-linecap="square"/>
<path d="M44.625 52.5C46.558 52.5 48.125 50.933 48.125 49C48.125 47.067 46.558 45.5 44.625 45.5C42.692 45.5 41.125 47.067 41.125 49C41.125 50.933 42.692 52.5 44.625 52.5Z" stroke="#EC1D24" stroke-width="2" stroke-miterlimit="10" stroke-linecap="square"/>
<path d="M49.875 25.375C51.808 25.375 53.375 23.808 53.375 21.875C53.375 19.942 51.808 18.375 49.875 18.375C47.942 18.375 46.375 19.942 46.375 21.875C46.375 23.808 47.942 25.375 49.875 25.375Z" stroke="#EC1D24" stroke-width="2" stroke-miterlimit="10" stroke-linecap="square"/>
<path d="M44.625 37.625C46.558 37.625 48.125 36.058 48.125 34.125C48.125 32.192 46.558 30.625 44.625 30.625C42.692 30.625 41.125 32.192 41.125 34.125C41.125 36.058 42.692 37.625 44.625 37.625Z" stroke="#EC1D24" stroke-width="2" stroke-miterlimit="10" stroke-linecap="square"/>
</svg>
