<svg xmlns="http://www.w3.org/2000/svg" xmlns:xlink="http://www.w3.org/1999/xlink" viewBox="0 0 205.381 66.764"><defs><style>.cls-1{fill:#fff;}.cls-2{mask:url(#mask);}.cls-3{fill:#ec1d24;fill-rule:evenodd;}</style><mask id="mask" x="0" y="0" width="205.381" height="66.764" maskUnits="userSpaceOnUse"><g id="mask0_16:1311" data-name="mask0 16:1311"><path class="cls-1" d="M191.646,59.179c-8.088,7.694-27.378,6.059-27.378-9.118,0-15.989,16.757-17.219,27.272-16.253V33.75c-.389-8.367-14.3-6.306-19.854-1.864-1.738-2.5-4.682-6.949-5.89-8.962,6.392-4.934,22-8.532,29.993-3.991a18.987,18.987,0,0,1,9.561,16.524V62.582H192.016Zm-52.467-.368c-14.191,11.26-28.741.569-30.557-13.918-2.262-18.042,12.035-32.372,30.441-26.128V0h14.029V62.582h-13.5Zm-.116-15.2V31.079c-6.079-2.773-15.468-2.875-16.321,9.7C121.867,53.673,137.966,54.981,139.063,43.608ZM85.214,22.841q6.159-7.53,17.521-4.341-1.709,9.412-2.349,12.721C89.469,29.316,85.45,32.6,85.4,42.141v20.5H71.373V18.32h13.5Zm-49-1.056a23.087,23.087,0,0,0-8.257,11.467,8.668,8.668,0,0,0-5.158-1.7,8.865,8.865,0,0,0,0,17.729,8.662,8.662,0,0,0,5.158-1.7,23.09,23.09,0,0,0,8.257,11.468A22.529,22.529,0,0,1,22.8,63.469a23.049,23.049,0,0,1,0-46.095A22.529,22.529,0,0,1,36.212,21.785ZM191.5,43.258c-4.188.05-13.631-1.469-13.413,5.5S191.5,54.51,191.5,46.449C191.5,43.785,191.5,43.8,191.5,43.258ZM49.628,49.286A8.865,8.865,0,1,1,58.4,40.421,8.817,8.817,0,0,1,49.628,49.286Z"/></g></mask></defs><title>Asset 1</title><g id="Layer_2" data-name="Layer 2"><g id="Layer_1-2" data-name="Layer 1"><g class="cls-2"><path class="cls-3" d="M0,66.764H205.381V0H0Z"/></g></g></g></svg>
