<svg width="154" height="32" viewBox="0 0 154 32" fill="none" xmlns="http://www.w3.org/2000/svg">
    <g clip-path="url(#clip0_16:409)">
        <path d="M39.5199 21.1201C40.0579 21.1201 40.5838 20.9605 41.0311 20.6617C41.4784 20.3628 41.827 19.938 42.0329 19.441C42.2387 18.9439 42.2926 18.397 42.1876 17.8694C42.0827 17.3418 41.8236 16.8571 41.4432 16.4767C41.0628 16.0963 40.5782 15.8373 40.0506 15.7323C39.5229 15.6274 38.976 15.6812 38.479 15.8871C37.982 16.093 37.5572 16.4416 37.2583 16.8889C36.9594 17.3362 36.7999 17.8621 36.7999 18.4001C36.7967 18.7581 36.8649 19.1133 37.0004 19.4447C37.136 19.7762 37.3362 20.0773 37.5894 20.3305C37.8427 20.5837 38.1438 20.784 38.4752 20.9195C38.8067 21.0551 39.1618 21.1233 39.5199 21.1201Z" fill="#EC1D24"/>
        <path d="M26.1601 10.64L29.7601 5.36V0H18.3201L14.7201 5.36H23.2801L18.8801 11.92L21.5201 16.56C22.3167 16.0807 23.2305 15.8315 24.1601 15.84C25.2393 15.8241 26.2988 16.1296 27.2039 16.7177C28.1089 17.3057 28.8186 18.1496 29.2427 19.1422C29.6667 20.1347 29.7859 21.2309 29.5851 22.2914C29.3844 23.3519 28.8727 24.3287 28.1151 25.0975C27.3576 25.8663 26.3885 26.3924 25.3312 26.6089C24.2738 26.8253 23.1759 26.7224 22.1772 26.3131C21.1785 25.9038 20.3241 25.2067 19.7228 24.3105C19.1214 23.4142 18.8002 22.3593 18.8001 21.28H13.6001C13.6001 24.0807 14.7127 26.7667 16.693 28.747C18.6734 30.7274 21.3594 31.84 24.1601 31.84C26.9608 31.84 29.6468 30.7274 31.6271 28.747C33.6075 26.7667 34.7201 24.0807 34.7201 21.28C34.7557 18.7872 33.92 16.3601 32.3572 14.4177C30.7945 12.4752 28.6027 11.1391 26.1601 10.64Z" fill="white"/>
        <path d="M10.8 0C8.89395 0.011315 7.02203 0.506822 5.36 1.44V0H0V21.12H5.36V10.72C5.36206 10.0099 5.50477 9.30733 5.77987 8.65273C6.05498 7.99813 6.45704 7.40451 6.96283 6.90616C7.46863 6.4078 8.06813 6.01458 8.72674 5.7492C9.38534 5.48383 10.09 5.35154 10.8 5.36H12.56L16.32 0H10.8Z" fill="white"/>
        <path d="M72.5599 15.92C72.5782 16.9521 72.3302 17.9716 71.8399 18.88C71.3799 19.7532 70.6505 20.4546 69.7599 20.88C68.7977 21.3805 67.7241 21.6283 66.6399 21.6H62.3999V10.32H66.6399C67.7241 10.2918 68.7977 10.5395 69.7599 11.04C70.6285 11.4684 71.3315 12.1714 71.7599 13.04C72.3217 13.8925 72.6016 14.8999 72.5599 15.92ZM66.3999 19.12C67.3101 19.1643 68.2012 18.8481 68.8799 18.24C69.1805 17.9198 69.4134 17.5421 69.5646 17.1297C69.7158 16.7173 69.7822 16.2787 69.7599 15.84C69.7822 15.4013 69.7158 14.9627 69.5646 14.5503C69.4134 14.1379 69.1805 13.7603 68.8799 13.44C68.2012 12.8319 67.3101 12.5157 66.3999 12.56H65.1199V19.04H66.3999V19.12ZM82.5599 16.88C82.5729 17.1228 82.5459 17.366 82.4799 17.6H76.3199C76.3199 18.1193 76.4883 18.6246 76.7999 19.04C76.9622 19.1847 77.1524 19.2949 77.3587 19.3636C77.565 19.4324 77.7832 19.4584 77.9999 19.44C78.3733 19.4581 78.7413 19.3449 79.0399 19.12C79.2955 18.9089 79.489 18.6324 79.5999 18.32H82.4799C82.3801 18.9452 82.1024 19.5285 81.6799 20C81.2641 20.5033 80.746 20.9124 80.1599 21.2C79.5233 21.4546 78.8454 21.5902 78.1599 21.6C77.371 21.6359 76.5874 21.4532 75.8957 21.072C75.204 20.6909 74.631 20.1261 74.2399 19.44C73.8475 18.7024 73.6545 17.8751 73.6799 17.04C73.6368 16.2032 73.8309 15.3713 74.2399 14.64C74.6012 13.9587 75.1586 13.4013 75.8399 13.04C76.5492 12.6492 77.3504 12.4558 78.1599 12.48C78.9703 12.4464 79.774 12.6404 80.4799 13.04C81.1158 13.3985 81.6414 13.9241 81.9999 14.56C82.3816 15.2729 82.5743 16.0716 82.5599 16.88ZM79.8399 16.48C79.8594 16.2444 79.8265 16.0075 79.7435 15.7862C79.6605 15.5648 79.5295 15.3647 79.3599 15.2C79.2043 15.0409 79.0171 14.9161 78.8105 14.8335C78.6039 14.7508 78.3823 14.7122 78.1599 14.72C77.6895 14.7212 77.2351 14.8916 76.8799 15.2C76.5534 15.5508 76.356 16.0022 76.3199 16.48H79.8399ZM88.1599 18.96L90.0799 12.72H92.9599L89.7599 21.68H86.3999L83.1999 12.72H86.0799L88.1599 18.96ZM102.56 16.88C102.573 17.1228 102.546 17.366 102.48 17.6H96.3199C96.3199 18.1193 96.4883 18.6246 96.7999 19.04C96.9622 19.1847 97.1524 19.2949 97.3587 19.3636C97.565 19.4324 97.7832 19.4584 97.9999 19.44C98.3733 19.4581 98.7413 19.3449 99.0399 19.12C99.2955 18.9089 99.489 18.6324 99.5999 18.32H102.48C102.38 18.9452 102.102 19.5285 101.68 20C101.264 20.5033 100.746 20.9124 100.16 21.2C99.5233 21.4546 98.8454 21.5902 98.1599 21.6C97.3709 21.6359 96.5874 21.4532 95.8957 21.072C95.204 20.6909 94.631 20.1261 94.2399 19.44C93.8475 18.7024 93.6545 17.8751 93.6799 17.04C93.6368 16.2032 93.8309 15.3713 94.2399 14.64C94.6012 13.9587 95.1586 13.4013 95.8399 13.04C96.5492 12.6492 97.3504 12.4558 98.1599 12.48C98.9703 12.4464 99.774 12.6404 100.48 13.04C101.116 13.3985 101.641 13.9241 102 14.56C102.382 15.2729 102.574 16.0716 102.56 16.88ZM99.8399 16.48C99.8594 16.2444 99.8265 16.0075 99.7435 15.7862C99.6605 15.5648 99.5295 15.3647 99.3599 15.2C99.2043 15.0409 99.0171 14.9161 98.8105 14.8335C98.6039 14.7508 98.3823 14.7122 98.1599 14.72C97.6894 14.7212 97.2351 14.8916 96.8799 15.2C96.5534 15.5508 96.3559 16.0022 96.3199 16.48H99.8399ZM106.72 9.76001V21.6H104V9.76001H106.72ZM112.8 12.56C113.635 12.5346 114.462 12.7277 115.2 13.12C115.904 13.478 116.488 14.0342 116.88 14.72C117.296 15.4516 117.517 16.2782 117.52 17.12C117.527 17.9632 117.306 18.7926 116.88 19.52C116.488 20.2058 115.904 20.762 115.2 21.12C114.453 21.4883 113.632 21.6799 112.8 21.6799C111.968 21.6799 111.146 21.4883 110.4 21.12C109.696 20.762 109.112 20.2058 108.72 19.52C108.328 18.7824 108.135 17.9551 108.16 17.12C108.126 16.2841 108.32 15.4548 108.72 14.72C109.112 14.0342 109.696 13.478 110.4 13.12C111.138 12.7277 111.965 12.5346 112.8 12.56ZM112.8 14.96C112.546 14.9492 112.293 14.9937 112.058 15.0904C111.823 15.1871 111.612 15.3337 111.44 15.52C111.065 15.9675 110.866 16.5363 110.88 17.12C110.847 17.4116 110.88 17.707 110.977 17.984C111.074 18.261 111.232 18.5126 111.44 18.72C111.612 18.9063 111.823 19.0529 112.058 19.1496C112.293 19.2463 112.546 19.2908 112.8 19.28C113.043 19.2986 113.287 19.2572 113.51 19.1596C113.733 19.0619 113.929 18.911 114.08 18.72C114.455 18.2725 114.654 17.7037 114.64 17.12C114.673 16.8284 114.64 16.5331 114.543 16.256C114.446 15.979 114.288 15.7274 114.08 15.52C113.929 15.329 113.733 15.1781 113.51 15.0804C113.287 14.9828 113.043 14.9414 112.8 14.96ZM124.4 12.56C125.107 12.5466 125.803 12.7413 126.4 13.12C126.993 13.5166 127.464 14.0707 127.76 14.72C128.087 15.4772 128.251 16.2951 128.24 17.12C128.268 17.9464 128.103 18.7679 127.76 19.52C127.464 20.1693 126.993 20.7234 126.4 21.12C125.812 21.5189 125.11 21.7155 124.4 21.68C123.778 21.704 123.164 21.5364 122.64 21.2C122.15 20.9134 121.78 20.4586 121.6 19.92V25.76H118.88V12.64H121.6V14.24C121.808 13.7171 122.171 13.2703 122.64 12.96C123.189 12.6967 123.791 12.56 124.4 12.56ZM123.52 14.96C123.254 14.949 122.989 14.9931 122.741 15.0895C122.494 15.1858 122.268 15.3324 122.08 15.52C121.879 15.7319 121.725 15.984 121.628 16.2599C121.532 16.5357 121.495 16.8289 121.52 17.12C121.501 17.4106 121.541 17.702 121.638 17.9768C121.734 18.2516 121.884 18.5044 122.08 18.72C122.473 19.0809 122.987 19.2812 123.52 19.2812C124.053 19.2812 124.567 19.0809 124.96 18.72C125.161 18.5082 125.315 18.256 125.412 17.9802C125.508 17.7043 125.545 17.4111 125.52 17.12C125.545 16.8289 125.508 16.5357 125.412 16.2599C125.315 15.984 125.161 15.7319 124.96 15.52C124.781 15.3203 124.557 15.1656 124.307 15.0683C124.057 14.9711 123.787 14.9339 123.52 14.96ZM138.16 16.88C138.173 17.1228 138.146 17.366 138.08 17.6H131.92C131.92 18.1193 132.088 18.6246 132.4 19.04C132.562 19.1847 132.752 19.2949 132.959 19.3636C133.165 19.4324 133.383 19.4584 133.6 19.44C133.973 19.4581 134.341 19.3449 134.64 19.12C134.896 18.9089 135.089 18.6324 135.2 18.32H138.08C137.98 18.9452 137.702 19.5285 137.28 20C136.864 20.5033 136.346 20.9124 135.76 21.2C135.123 21.4546 134.445 21.5902 133.76 21.6C132.971 21.6359 132.187 21.4532 131.496 21.072C130.804 20.6909 130.231 20.1261 129.84 19.44C129.448 18.7024 129.255 17.8751 129.28 17.04C129.237 16.2032 129.431 15.3713 129.84 14.64C130.201 13.9587 130.759 13.4013 131.44 13.04C132.149 12.6492 132.95 12.4558 133.76 12.48C134.57 12.4464 135.374 12.6404 136.08 13.04C136.716 13.3985 137.241 13.9241 137.6 14.56C137.982 15.2729 138.174 16.0716 138.16 16.88ZM135.44 16.48C135.459 16.2444 135.426 16.0075 135.343 15.7862C135.26 15.5648 135.129 15.3647 134.96 15.2C134.804 15.0409 134.617 14.9161 134.411 14.8335C134.204 14.7508 133.982 14.7122 133.76 14.72C133.289 14.7212 132.835 14.8916 132.48 15.2C132.153 15.5508 131.956 16.0022 131.92 16.48H135.44ZM142.32 14.32C142.641 13.7991 143.079 13.3607 143.6 13.04C144.132 12.7238 144.741 12.5579 145.36 12.56V15.52H144.56C143.961 15.4834 143.369 15.6528 142.88 16C142.666 16.2031 142.504 16.4541 142.407 16.7323C142.309 17.0106 142.279 17.308 142.32 17.6V21.6H139.6V12.64H142.32V14.32ZM149.84 12.56C150.821 12.5316 151.781 12.8424 152.56 13.44C152.91 13.7109 153.203 14.0482 153.423 14.4326C153.643 14.817 153.784 15.2408 153.84 15.68H151.2C151.138 15.3428 150.97 15.0344 150.72 14.8C150.59 14.6838 150.438 14.5955 150.273 14.5404C150.108 14.4854 149.933 14.4648 149.76 14.48C149.63 14.4699 149.499 14.4859 149.376 14.5272C149.252 14.5684 149.138 14.634 149.04 14.72C148.962 14.7905 148.9 14.877 148.858 14.9737C148.817 15.0704 148.797 15.1749 148.8 15.28C148.809 15.4114 148.85 15.5385 148.92 15.6501C148.989 15.7618 149.086 15.8545 149.2 15.92C149.643 16.0861 150.097 16.2198 150.56 16.32C151.131 16.4368 151.693 16.5972 152.24 16.8C152.677 16.9636 153.063 17.2396 153.36 17.6C153.696 18.0334 153.866 18.5724 153.84 19.12C153.83 19.6009 153.692 20.0705 153.44 20.48C153.152 20.9194 152.732 21.2556 152.24 21.44C151.656 21.6757 151.029 21.7848 150.4 21.76C149.377 21.8245 148.363 21.5427 147.52 20.96C147.15 20.6838 146.839 20.3362 146.605 19.9377C146.371 19.5392 146.22 19.098 146.16 18.64H148.8C148.861 18.9772 149.03 19.2857 149.28 19.52C149.604 19.7556 150 19.8689 150.4 19.84C150.53 19.8501 150.661 19.8341 150.784 19.7929C150.908 19.7516 151.022 19.6861 151.12 19.6C151.198 19.5295 151.26 19.443 151.301 19.3463C151.343 19.2497 151.363 19.1451 151.36 19.04C151.371 18.8933 151.328 18.7476 151.24 18.6299C151.152 18.5123 151.024 18.4306 150.88 18.4C150.425 18.1876 149.939 18.0524 149.44 18C148.897 17.8735 148.363 17.7132 147.84 17.52C147.403 17.3564 147.016 17.0805 146.72 16.72C146.397 16.3108 146.227 15.8013 146.24 15.28C146.23 14.9141 146.305 14.5508 146.457 14.218C146.61 13.8852 146.836 13.5917 147.12 13.36C147.908 12.7885 148.868 12.506 149.84 12.56Z" fill="white"/>
    </g>
    <defs>
        <clipPath id="clip0_16:409">
            <rect width="153.84" height="32" fill="white"/>
        </clipPath>
    </defs>
</svg>
